<?xml version="1.0" encoding="utf-8"?>
<!-- Generator: Adobe Illustrator 19.0.0, SVG Export Plug-In . SVG Version: 6.00 Build 0)  -->
<svg version="1.1" id="Layer_1" xmlns="http://www.w3.org/2000/svg" xmlns:xlink="http://www.w3.org/1999/xlink" x="0px" y="0px"
   viewBox="0 0 56.7 31.8" style="enable-background:new 0 0 56.7 31.8;" xml:space="preserve">
<g id="XMLID_1_">
  <path class="ornament--ampersand-ornament" id="XMLID_16_" d="M43.4,21.8l-1.9,2c-5.2,5.3-10,8-14.5,8c-2.8,0-5.2-0.9-7.1-2.6c-2-1.7-2.9-3.8-2.9-6.3
    c0-1.5,0.5-2.8,1.6-3.9c1-1.1,2.3-1.7,3.7-1.7c2.1,0,3.9,1.5,5.3,4.5c-0.8-0.3-1.6-0.4-2.2-0.4c-1.2,0-2.3,0.3-3.2,1
    s-1.4,1.5-1.4,2.4c0,0.8,0.2,1.4,0.7,1.9c0.4,0.4,1.1,0.6,2,0.6c1.9,0,5.3-2.5,10.3-7.6l2.1-2.2c-4.8-2.4-9.1-3.5-12.8-3.5
    c-3.9,0-7.1,1-9.7,3.1c-2.6,2.1-3.9,4.7-3.9,7.8c0,1.9,0.5,3.4,1.6,4.6c-3.3,0-6-0.6-8-1.9c-2-1.2-3-2.9-3-5.1
    c0-3.4,1.8-6.3,5.5-8.7c3.7-2.5,8-3.7,13-3.7c3.6,0,7.4,0.7,11.3,2.1l-1.5-1.4C24,6.8,20.6,4.7,18.1,4.7c-0.9,0-1.6,0.2-2,0.6
    c-0.5,0.4-0.7,0.9-0.7,1.7c0,0.4,0.1,0.9,0.4,1.5c-3.8-0.5-5.7-2.1-5.7-4.6c0-1.3,0.5-2.3,1.4-2.9c0.9-0.6,2.3-1,4.1-1
    c4.2,0,9.1,2.9,14.6,8.6l1.5,1.5c2.3,2.3,4.3,4.2,6.1,5.4c3.9-3.8,7.6-5.7,10.9-5.7c2.3,0,4.1,0.7,5.7,2.1c1.5,1.4,2.3,3.1,2.3,5.2
    c0,1.7-0.6,3.2-1.9,4.4c-1.3,1.2-2.8,1.8-4.7,1.8C48.2,23.5,45.9,22.9,43.4,21.8z M45.6,19.5c1.4,0.5,2.7,0.8,3.8,0.8
    c1,0,1.8-0.2,2.3-0.6c0.5-0.4,0.8-1,0.8-1.7c0-0.6-0.2-1-0.5-1.3s-0.8-0.4-1.5-0.4C49.6,16.4,47.9,17.4,45.6,19.5z"/>
</g>
</svg>
